<svg width="17" height="17" viewBox="0 0 17 17" fill="none" xmlns="http://www.w3.org/2000/svg">
<g id="Location" clip-path="url(#clip0_1_2823)">
<g id="Group">
<path id="Vector" d="M8.50071 16.0252L8.21482 15.6758C8.02422 15.4216 3.16406 9.73558 3.16406 6.33665C3.16406 3.38244 5.57826 1 8.50071 1C11.4232 1 13.8374 3.4142 13.8374 6.33665C13.8374 9.73558 8.97719 15.4534 8.7866 15.6758L8.50071 16.0252ZM8.50071 1.73062C5.95945 1.73062 3.92644 3.79539 3.92644 6.30488C3.92644 8.9732 7.45244 13.5157 8.50071 14.8181C9.54898 13.5157 13.075 9.00497 13.075 6.30488C13.075 3.79539 11.042 1.73062 8.50071 1.73062Z" fill="white" stroke="white" stroke-width="0.5"/>
<path id="Vector_2" d="M8.50176 8.37071C7.38995 8.37071 6.46875 7.4495 6.46875 6.3377C6.46875 5.2259 7.38995 4.30469 8.50176 4.30469C9.61356 4.30469 10.5348 5.2259 10.5348 6.3377C10.5348 7.4495 9.61356 8.37071 8.50176 8.37071ZM8.50176 5.06707C7.80291 5.06707 7.23113 5.63886 7.23113 6.3377C7.23113 7.03655 7.80291 7.60833 8.50176 7.60833C9.2006 7.60833 9.77238 7.03655 9.77238 6.3377C9.77238 5.63886 9.2006 5.06707 8.50176 5.06707Z" fill="white" stroke="white" stroke-width="0.5"/>
</g>
</g>
<defs>
<clipPath id="clip0_1_2823">
<rect width="16" height="16" fill="white" transform="translate(0.5 0.5)"/>
</clipPath>
</defs>
</svg>
