<svg width="17" height="17" viewBox="0 0 17 17" fill="none" xmlns="http://www.w3.org/2000/svg">
<g id="Suitcase" clip-path="url(#clip0_1_2836)">
<path id="63 Suitcase, Bag, Briefcase, Portfolio, Travel" d="M14.168 3.83203H11.8346V2.83203C11.8346 2.56681 11.7293 2.31246 11.5417 2.12492C11.3542 1.93739 11.0999 1.83203 10.8346 1.83203H6.16797C5.90275 1.83203 5.6484 1.93739 5.46086 2.12492C5.27333 2.31246 5.16797 2.56681 5.16797 2.83203V3.83203H2.83464C2.39261 3.83203 1.96868 4.00763 1.65612 4.32019C1.34356 4.63275 1.16797 5.05667 1.16797 5.4987V9.4987C1.16797 9.5871 1.20309 9.67189 1.2656 9.7344C1.32811 9.79691 1.4129 9.83203 1.5013 9.83203H1.83464V13.4987C1.83464 13.9407 2.01023 14.3646 2.32279 14.6772C2.63535 14.9898 3.05927 15.1654 3.5013 15.1654H13.5013C13.9433 15.1654 14.3673 14.9898 14.6798 14.6772C14.9924 14.3646 15.168 13.9407 15.168 13.4987V9.83203H15.5013C15.5897 9.83203 15.6745 9.79691 15.737 9.7344C15.7995 9.67189 15.8346 9.5871 15.8346 9.4987V5.4987C15.8346 5.05667 15.659 4.63275 15.3465 4.32019C15.0339 4.00763 14.61 3.83203 14.168 3.83203ZM5.83464 2.83203C5.83464 2.74363 5.86975 2.65884 5.93227 2.59633C5.99478 2.53382 6.07956 2.4987 6.16797 2.4987H10.8346C10.923 2.4987 11.0078 2.53382 11.0703 2.59633C11.1328 2.65884 11.168 2.74363 11.168 2.83203V3.83203H5.83464V2.83203ZM15.168 9.16536H10.8346V9.83203H14.5013V13.4987C14.5013 13.7639 14.3959 14.0183 14.2084 14.2058C14.0209 14.3933 13.7665 14.4987 13.5013 14.4987H3.5013C3.23609 14.4987 2.98173 14.3933 2.7942 14.2058C2.60666 14.0183 2.5013 13.7639 2.5013 13.4987V9.83203H6.16797V9.16536H1.83464V5.4987C1.83464 5.23348 1.93999 4.97913 2.12753 4.79159C2.31507 4.60405 2.56942 4.4987 2.83464 4.4987H14.168C14.4332 4.4987 14.6875 4.60405 14.8751 4.79159C15.0626 4.97913 15.168 5.23348 15.168 5.4987V9.16536ZM9.16797 7.4987H7.83463C7.56942 7.4987 7.31506 7.60405 7.12753 7.79159C6.93999 7.97913 6.83464 8.23348 6.83464 8.4987V10.4987C6.83464 10.7639 6.93999 11.0183 7.12753 11.2058C7.31506 11.3933 7.56942 11.4987 7.83463 11.4987H9.16797C9.43318 11.4987 9.68754 11.3933 9.87508 11.2058C10.0626 11.0183 10.168 10.7639 10.168 10.4987V8.4987C10.168 8.23348 10.0626 7.97913 9.87508 7.79159C9.68754 7.60405 9.43318 7.4987 9.16797 7.4987ZM9.5013 10.4987C9.5013 10.5871 9.46618 10.6719 9.40367 10.7344C9.34116 10.7969 9.25637 10.832 9.16797 10.832H7.83463C7.74623 10.832 7.66144 10.7969 7.59893 10.7344C7.53642 10.6719 7.5013 10.5871 7.5013 10.4987V8.4987C7.5013 8.41029 7.53642 8.32551 7.59893 8.263C7.66144 8.20048 7.74623 8.16536 7.83463 8.16536H9.16797C9.25637 8.16536 9.34116 8.20048 9.40367 8.263C9.46618 8.32551 9.5013 8.41029 9.5013 8.4987V10.4987ZM8.16797 9.4987C8.16797 9.3146 8.31721 9.16536 8.5013 9.16536C8.6854 9.16536 8.83463 9.3146 8.83463 9.4987C8.83463 9.68279 8.6854 9.83203 8.5013 9.83203C8.31721 9.83203 8.16797 9.68279 8.16797 9.4987Z" fill="white" stroke="white" stroke-width="0.5"/>
</g>
<defs>
<clipPath id="clip0_1_2836">
<rect width="16" height="16" fill="white" transform="translate(0.5 0.5)"/>
</clipPath>
</defs>
</svg>
