<svg width="17" height="17" viewBox="0 0 17 17" fill="none" xmlns="http://www.w3.org/2000/svg">
<g id="Group 1590">
<g id="Group 1589">
<g id="32">
<path id="Vector" d="M8.5 0.5C6.91775 0.5 5.37103 0.969192 4.05544 1.84824C2.73985 2.72729 1.71447 3.97672 1.10897 5.43853C0.503466 6.90034 0.34504 8.50887 0.653721 10.0607C0.962403 11.6126 1.72433 13.038 2.84315 14.1569C3.96197 15.2757 5.38743 16.0376 6.93928 16.3463C8.49113 16.655 10.0997 16.4965 11.5615 15.891C13.0233 15.2855 14.2727 14.2602 15.1518 12.9446C16.0308 11.629 16.5 10.0822 16.5 8.5C16.5 7.44942 16.2931 6.40914 15.891 5.43853C15.489 4.46793 14.8997 3.58601 14.1569 2.84315C13.414 2.10028 12.5321 1.511 11.5615 1.10896C10.5909 0.706926 9.55058 0.5 8.5 0.5ZM8.5 14.9C7.2342 14.9 5.99683 14.5246 4.94435 13.8214C3.89188 13.1182 3.07157 12.1186 2.58717 10.9492C2.10277 9.77972 1.97603 8.4929 2.22298 7.25142C2.46992 6.00994 3.07946 4.86957 3.97452 3.97452C4.86958 3.07946 6.00995 2.46992 7.25142 2.22297C8.4929 1.97603 9.77973 2.10277 10.9492 2.58717C12.1186 3.07157 13.1182 3.89187 13.8214 4.94435C14.5246 5.99682 14.9 7.2342 14.9 8.5C14.9 10.1974 14.2257 11.8252 13.0255 13.0255C11.8253 14.2257 10.1974 14.9 8.5 14.9Z" fill="white"/>
<path id="Vector_2" d="M10.9286 8.78571H9.21429V5.35714C9.21429 5.12981 9.12398 4.9118 8.96323 4.75105C8.80249 4.59031 8.58447 4.5 8.35714 4.5C8.12981 4.5 7.9118 4.59031 7.75105 4.75105C7.59031 4.9118 7.5 5.12981 7.5 5.35714V9.64286C7.5 9.87019 7.59031 10.0882 7.75105 10.2489C7.9118 10.4097 8.12981 10.5 8.35714 10.5H10.9286C11.1559 10.5 11.3739 10.4097 11.5347 10.2489C11.6954 10.0882 11.7857 9.87019 11.7857 9.64286C11.7857 9.41553 11.6954 9.19751 11.5347 9.03677C11.3739 8.87602 11.1559 8.78571 10.9286 8.78571Z" fill="white"/>
</g>
</g>
</g>
</svg>
