<svg width="174" height="78" viewBox="0 0 174 78" fill="none" xmlns="http://www.w3.org/2000/svg">
<g id="whiteLOGO 1" clip-path="url(#clip0_1_4969)">
<g id="Group">
<g id="Group_2">
<path id="Vector" d="M27.3429 0C12.1918 0 0 10.0455 0 29.3091C0 48.5727 27.3429 77.1727 27.3429 77.1727C27.3429 77.1727 54.6857 48.5727 54.6857 29.3091C54.6857 10.0455 42.3755 0 27.3429 0ZM27.3429 47.9818C15.7429 47.9818 6.39184 38.6455 6.39184 27.1818C6.39184 15.7182 15.7429 6.38182 27.3429 6.38182C38.9429 6.38182 48.2939 15.7182 48.2939 27.1818C48.2939 38.6455 38.9429 47.9818 27.3429 47.9818Z" fill="white"/>
<g id="Group_3">
<g id="Group 1000000963">
<path id="Vector_2" d="M31.8406 23.7546C31.6038 23.9909 31.3671 24.3455 31.2487 24.7C31.1304 24.9364 31.1304 25.0546 31.1304 25.2909C31.1304 25.4091 31.1304 25.5273 31.1304 25.6455C31.1304 25.7636 31.1304 25.8818 31.1304 26C31.2487 26 31.3671 26 31.4855 26C31.6038 26 31.7222 26 31.8406 25.8818C32.0773 25.7636 32.1957 25.7636 32.4324 25.6455C32.7875 25.4091 33.0243 25.1727 33.261 24.9364C33.4977 24.7 33.7345 24.3455 33.8528 23.9909C33.9712 23.7546 33.9712 23.6364 33.9712 23.4C33.9712 23.2818 33.9712 23.1636 33.9712 23.0455C33.9712 22.9273 33.9712 22.8091 33.9712 22.6909C33.8528 22.6909 33.7345 22.6909 33.6161 22.6909C33.4977 22.6909 33.3794 22.6909 33.261 22.8091C33.0243 22.9273 32.9059 22.9273 32.6691 23.0455C32.4324 23.2818 32.0773 23.5182 31.8406 23.7546Z" fill="white"/>
<path id="Vector_3" d="M31.0122 19.0273C31.0122 19.1455 31.0122 19.2637 31.0122 19.3819C31.0122 19.5001 31.0122 19.6182 31.1306 19.7364C31.249 19.7364 31.3673 19.6182 31.4857 19.6182C31.6041 19.6182 31.7224 19.5001 31.7224 19.5001C31.8408 19.3819 32.0775 19.2637 32.1959 19.1455C32.4326 18.9092 32.6694 18.5546 32.7877 18.2001C32.9061 17.8455 33.0245 17.491 33.1428 17.1364C33.1428 16.9001 33.1428 16.7819 33.1428 16.5455C33.1428 16.4273 33.1428 16.3092 33.1428 16.191C33.1428 16.0728 33.1428 15.9546 33.0245 15.8364C32.9061 15.8364 32.7877 15.9546 32.6694 15.9546C32.551 15.9546 32.4326 16.0728 32.4326 16.0728C32.3143 16.191 32.0775 16.3092 31.9592 16.4273C31.7224 16.6637 31.4857 17.0182 31.3673 17.3728C31.249 17.7273 31.1306 18.0819 31.0122 18.4364C30.8939 18.5546 30.8939 18.791 31.0122 19.0273Z" fill="white"/>
<path id="Vector_4" d="M31.6036 23.0455C31.7219 22.9273 31.9587 22.8091 32.077 22.6909C32.3138 22.4546 32.5505 22.1 32.6689 21.7455C32.7872 21.3909 32.9056 21.0364 32.9056 20.6818C32.9056 20.4455 32.9056 20.3273 32.9056 20.0909C32.9056 19.9727 32.9056 19.8546 32.9056 19.7364C32.9056 19.6182 32.9056 19.5 32.7872 19.3818C32.6689 19.3818 32.5505 19.5 32.4321 19.5C32.3138 19.5 32.1954 19.6182 32.1954 19.7364C32.077 19.8546 31.8403 19.9727 31.7219 20.0909C31.4852 20.3273 31.2485 20.6818 31.1301 21.0364C31.0117 21.3909 30.8934 21.7455 30.8934 22.1C30.8934 22.3364 30.8934 22.4546 30.8934 22.6909C30.8934 22.8091 30.8934 22.9273 30.8934 23.0455C30.8934 23.1637 30.8934 23.2818 31.0117 23.4C31.1301 23.4 31.2485 23.2818 31.3668 23.2818C31.4852 23.1637 31.6036 23.1637 31.6036 23.0455Z" fill="white"/>
<path id="Vector_5" d="M29.5923 16.0728C29.5923 16.191 29.7107 16.3092 29.7107 16.4274C29.7107 16.5455 29.829 16.6637 29.9474 16.7819C30.0658 16.6637 30.1841 16.6637 30.1841 16.5455C30.3025 16.4274 30.3025 16.4274 30.4209 16.3092C30.5392 16.191 30.6576 15.9546 30.776 15.8365C30.8943 15.4819 31.0127 15.1274 31.1311 14.7728C31.1311 14.4183 31.1311 14.0637 31.1311 13.7092C31.1311 13.4728 31.0127 13.3546 31.0127 13.1183C31.0127 13.0001 30.8943 12.8819 30.8943 12.7637C30.8943 12.6455 30.776 12.5274 30.6576 12.4092C30.5392 12.5274 30.4209 12.5274 30.4209 12.6455C30.3025 12.7637 30.3025 12.7637 30.1841 12.8819C30.0658 13.0001 29.9474 13.2365 29.829 13.3546C29.7107 13.7092 29.5923 14.0637 29.4739 14.4183C29.4739 14.7728 29.4739 15.1274 29.4739 15.4819C29.4739 15.6001 29.4739 15.8365 29.5923 16.0728Z" fill="white"/>
<path id="Vector_6" d="M34.2077 21.982C34.3261 21.982 34.4444 21.8638 34.5628 21.8638C34.7995 21.7456 34.9179 21.6274 35.0363 21.5093C35.3914 21.2729 35.6281 21.0365 35.8648 20.682C36.1016 20.3274 36.2199 20.0911 36.3383 19.7365C36.3383 19.5002 36.4567 19.382 36.4567 19.1456C36.4567 19.0274 36.4567 18.9092 36.4567 18.7911C36.4567 18.6729 36.4567 18.5547 36.4567 18.4365C36.3383 18.4365 36.2199 18.4365 36.1016 18.5547C35.9832 18.5547 35.8648 18.6729 35.7465 18.6729C35.5097 18.7911 35.3914 18.9093 35.273 19.0274C34.9179 19.2638 34.6812 19.5002 34.4444 19.8547C34.2077 20.2092 34.0893 20.4456 33.971 20.8002C33.971 21.0365 33.8526 21.1547 33.8526 21.3911C33.8526 21.5093 33.8526 21.6274 33.8526 21.7456C33.8526 21.8638 33.8526 21.982 33.8526 22.1002C33.971 21.982 34.0893 21.982 34.2077 21.982Z" fill="white"/>
<path id="Vector_7" d="M27.3433 32.3821C28.7637 32.3821 29.9474 31.2003 29.9474 29.7821C29.9474 28.3639 28.7637 27.1821 27.3433 27.1821C25.9229 27.1821 24.7392 28.3639 24.7392 29.7821C24.7392 31.2003 25.9229 32.3821 27.3433 32.3821Z" fill="white"/>
<path id="Vector_8" d="M28.5265 21.5093C28.5265 21.6275 28.6449 21.7457 28.6449 21.8639C28.6449 21.9821 28.7632 22.1002 28.7632 22.2184C28.8816 22.1002 29 22.1002 29 21.9821C29.1183 21.8639 29.1183 21.8639 29.2367 21.7457C29.3551 21.6275 29.4734 21.3912 29.5918 21.273C29.8286 20.9184 29.9469 20.5639 30.0653 20.2093C30.1837 19.8548 30.1837 19.5002 30.1837 19.1457C30.1837 18.9093 30.1837 18.7912 30.0653 18.5548C30.0653 18.4366 29.9469 18.3184 29.9469 18.2002C29.9469 18.0821 29.8286 17.9639 29.8286 17.8457C29.7102 17.9639 29.5918 17.9639 29.5918 18.0821C29.4734 18.2002 29.4734 18.2002 29.3551 18.3184C29.2367 18.4366 29.1183 18.673 29 18.7912C28.7632 19.1457 28.6449 19.5002 28.5265 19.8548C28.4081 20.0912 28.4081 20.5639 28.4081 20.9184C28.4081 21.0366 28.5265 21.273 28.5265 21.5093Z" fill="white"/>
<path id="Vector_9" d="M30.4199 23.8728C30.4199 23.6364 30.4199 23.5182 30.3016 23.2818C30.3016 23.1637 30.3016 23.0455 30.1832 22.9273C30.1832 22.8091 30.0648 22.6909 30.0648 22.5728C29.9465 22.5728 29.8281 22.6909 29.7097 22.8091C29.5914 22.9273 29.5914 22.9273 29.473 23.0455C29.3546 23.1637 29.2363 23.2818 29.1179 23.5182C28.8812 23.8728 28.7628 24.1091 28.6444 24.4637C28.5261 24.8182 28.5261 25.1728 28.5261 25.5273C28.5261 25.7637 28.5261 25.8818 28.6444 26.1182C28.6444 26.2364 28.6444 26.3546 28.7628 26.4728C28.7628 26.5909 28.8812 26.7091 28.8812 26.8273C28.9995 26.8273 29.1179 26.7091 29.2363 26.5909C29.3546 26.4728 29.3546 26.4728 29.473 26.3546C29.5914 26.2364 29.7097 26.1182 29.8281 25.8818C30.0648 25.5273 30.1832 25.2909 30.3016 24.9364C30.4199 24.7 30.4199 24.3455 30.4199 23.8728Z" fill="white"/>
<path id="Vector_10" d="M33.971 18.2003C34.0893 18.2003 34.2077 18.0821 34.3261 18.0821C34.4444 18.0821 34.5628 17.9639 34.5628 17.9639C34.7995 17.8457 34.9179 17.7275 35.0363 17.6094C35.273 17.373 35.5097 17.0185 35.7465 16.7821C35.9832 16.4275 36.1016 16.073 36.1016 15.7185C36.1016 15.4821 36.2199 15.3639 36.2199 15.1275C36.2199 15.0094 36.2199 14.8912 36.2199 14.773C36.2199 14.6548 36.2199 14.5366 36.1016 14.4185C35.9832 14.4185 35.8648 14.5366 35.7465 14.5366C35.6281 14.5366 35.5097 14.6548 35.5097 14.6548C35.273 14.773 35.1546 14.8912 35.0363 15.0094C34.7995 15.2457 34.5628 15.6003 34.3261 15.8366C34.0893 16.1912 33.971 16.5457 33.971 16.9003C33.971 17.1366 33.8526 17.2548 33.8526 17.4912C33.8526 17.6094 33.8526 17.7275 33.8526 17.8457C33.971 17.9639 33.971 18.0821 33.971 18.2003Z" fill="white"/>
<path id="Vector_11" d="M24.3837 23.2818C24.3837 23.5182 24.2653 23.6364 24.2653 23.8728C24.2653 24.2273 24.2653 24.5818 24.3837 24.9364C24.5021 25.2909 24.6204 25.6455 24.8572 25.8818C24.9755 26 25.0939 26.2364 25.2123 26.3546C25.3306 26.4728 25.3306 26.4728 25.449 26.5909C25.5674 26.7091 25.6857 26.7091 25.8041 26.8273C25.9225 26.7091 25.9225 26.5909 25.9225 26.4728C25.9225 26.3546 26.0408 26.2364 26.0408 26.1182C26.0408 25.8818 26.1592 25.7637 26.1592 25.5273C26.1592 25.1728 26.1592 24.8182 26.0408 24.4637C25.9225 24.1091 25.8041 23.7546 25.5674 23.5182C25.449 23.4 25.3306 23.1637 25.2123 23.0455C25.0939 22.9273 25.0939 22.9273 24.9755 22.8091C24.8572 22.6909 24.7388 22.6909 24.6204 22.5728C24.5021 22.6909 24.5021 22.8091 24.5021 22.9273C24.3837 23.1637 24.3837 23.1637 24.3837 23.2818Z" fill="white"/>
<path id="Vector_12" d="M37.1669 27.7731C37.2853 27.6549 37.522 27.5367 37.6404 27.4186C37.7587 27.3004 37.7587 27.3004 37.8771 27.1822C37.9955 27.064 37.9955 27.064 38.1138 26.9458C37.9955 26.9458 37.8771 26.8277 37.7587 26.8277C37.6404 26.8277 37.522 26.8277 37.4036 26.7095C37.1669 26.7095 37.0485 26.7095 36.8118 26.7095C36.4567 26.7095 36.1016 26.8277 35.7465 26.9458C35.3914 27.064 35.0363 27.1822 34.7995 27.4186C34.6812 27.5367 34.4444 27.6549 34.3261 27.7731C34.2077 27.8913 34.2077 27.8913 34.0893 28.0095C33.971 28.1277 33.971 28.1277 33.8526 28.2458C33.971 28.2458 34.0893 28.364 34.2077 28.364C34.3261 28.364 34.4444 28.364 34.5628 28.4822C34.7995 28.4822 34.9179 28.4822 35.1546 28.4822C35.5097 28.4822 35.8648 28.364 36.2199 28.2458C36.575 28.1277 36.8118 28.0095 37.1669 27.7731Z" fill="white"/>
<path id="Vector_13" d="M37.0492 26.0004C37.4043 25.8822 37.7594 25.764 38.1145 25.5276C38.4696 25.2913 38.7063 25.0549 38.9431 24.8185C39.0614 24.7004 39.1798 24.464 39.2982 24.3458C39.2982 24.2276 39.4165 24.1094 39.4165 23.9913C39.4165 23.8731 39.5349 23.7549 39.5349 23.6367C39.4165 23.6367 39.2981 23.6367 39.1798 23.6367C39.0614 23.6367 38.943 23.6367 38.8247 23.6367C38.5879 23.6367 38.4696 23.6367 38.2328 23.7549C37.8777 23.8731 37.5226 23.9913 37.1675 24.2276C36.8124 24.464 36.5757 24.7004 36.339 24.9367C36.2206 25.0549 36.1022 25.2913 35.9839 25.4094C35.9839 25.5276 35.8655 25.6458 35.8655 25.764C35.8655 25.8822 35.7471 26.0004 35.7471 26.1185C35.8655 26.1185 35.9839 26.1185 36.1022 26.1185C36.2206 26.1185 36.339 26.1185 36.4573 26.1185C36.6941 26.1185 36.8124 26.1185 37.0492 26.0004Z" fill="white"/>
<path id="Vector_14" d="M32.6694 28.0092C33.0245 27.891 33.3796 27.7728 33.6163 27.5364C33.9714 27.3001 34.2081 27.0637 34.4449 26.7092C34.5632 26.591 34.6816 26.3546 34.8 26.2364C34.8 26.1183 34.9183 26.0001 34.9183 25.8819C34.9183 25.7637 35.0367 25.6455 35.0367 25.5273C34.9183 25.5273 34.8 25.5273 34.6816 25.5273C34.5632 25.5273 34.4449 25.5273 34.3265 25.5273C34.0898 25.5273 33.9714 25.6455 33.7347 25.6455C33.3796 25.7637 33.0245 25.8819 32.7877 26.1183C32.4326 26.3546 32.1959 26.591 31.9591 26.9455C31.8408 27.0637 31.7224 27.3001 31.604 27.4183C31.604 27.5364 31.4857 27.6546 31.4857 27.7728C31.4857 27.891 31.3673 28.0092 31.3673 28.1273C31.4857 28.1273 31.604 28.1273 31.7224 28.1273C31.8408 28.1273 31.9591 28.1273 32.0775 28.1273C32.3142 28.1273 32.4326 28.1273 32.6694 28.0092Z" fill="white"/>
<path id="Vector_15" d="M37.9959 29.3093C38.2326 29.3093 38.351 29.4275 38.5877 29.4275C38.9428 29.4275 39.298 29.4275 39.6531 29.3093C40.0082 29.1911 40.3633 29.073 40.7184 28.8366C40.8367 28.7184 41.0735 28.6002 41.1918 28.4821C41.3102 28.3639 41.3102 28.3639 41.4286 28.2457C41.5469 28.1275 41.5469 28.0093 41.6653 28.0093C41.5469 27.8912 41.4286 27.8911 41.3102 27.8911C41.1918 27.8911 41.0735 27.773 40.9551 27.773C40.7184 27.773 40.6 27.6548 40.3633 27.6548C40.0082 27.6548 39.6531 27.6548 39.298 27.773C38.9428 27.8911 38.5877 28.0093 38.2326 28.2457C38.1143 28.3639 37.8775 28.4821 37.7592 28.6002C37.6408 28.7184 37.6408 28.7184 37.5224 28.8366C37.4041 28.9548 37.4041 29.073 37.2857 29.073C37.4041 29.1911 37.5224 29.1912 37.6408 29.1912C37.7592 29.3093 37.8775 29.3093 37.9959 29.3093Z" fill="white"/>
<path id="Vector_16" d="M43.2043 26.4727C43.086 26.5909 42.8492 26.7091 42.7309 26.8273C42.6125 26.9455 42.6125 26.9455 42.4941 27.0636C42.3758 27.1818 42.3758 27.3 42.2574 27.3C42.3758 27.4182 42.4941 27.4182 42.6125 27.4182C42.7309 27.4182 42.8492 27.5364 42.9676 27.5364C43.2043 27.6545 43.3227 27.6545 43.5594 27.6545C43.9145 27.6545 44.2696 27.6545 44.6247 27.5364C44.9798 27.4182 45.3349 27.3 45.69 27.0636C45.8084 26.9455 46.0451 26.8273 46.1635 26.7091C46.2819 26.5909 46.2819 26.5909 46.4002 26.4727C46.5186 26.3545 46.5186 26.3545 46.637 26.2364C46.5186 26.1182 46.4002 26.1182 46.2819 26.1182C46.1635 26.1182 46.0451 26 45.9268 26C45.69 26 45.5717 26 45.3349 26C44.9798 26 44.6247 26 44.2696 26.1182C43.7962 26.1182 43.5594 26.2364 43.2043 26.4727Z" fill="white"/>
<path id="Vector_17" d="M38.5879 21.1549C38.3512 21.3913 38.1145 21.6276 37.8777 21.9822C37.7594 22.1003 37.641 22.3367 37.641 22.5731C37.641 22.6913 37.5226 22.8094 37.5226 22.9276C37.5226 23.0458 37.5226 23.164 37.5226 23.2822C37.641 23.2822 37.7594 23.2822 37.8777 23.2822C37.9961 23.2822 38.1145 23.2822 38.2328 23.2822C38.4696 23.2822 38.5879 23.164 38.8247 23.164C39.1798 23.0458 39.5349 22.8094 39.7716 22.5731C40.0084 22.3367 40.2451 22.1003 40.4818 21.7458C40.6002 21.6276 40.7186 21.3913 40.7186 21.1549C40.7186 21.0367 40.8369 20.9185 40.8369 20.8003C40.8369 20.6822 40.8369 20.564 40.8369 20.4458C40.7186 20.4458 40.6002 20.4458 40.4818 20.4458C40.3635 20.4458 40.2451 20.4458 40.1267 20.4458C39.89 20.4458 39.7716 20.564 39.5349 20.6822C39.1798 20.6822 38.943 20.9185 38.5879 21.1549Z" fill="white"/>
<path id="Vector_18" d="M42.375 25.4093C42.4934 25.2911 42.4934 25.2911 42.6118 25.1729C42.7301 25.0548 42.7301 24.9366 42.7301 24.8184C42.6118 24.8184 42.4934 24.7002 42.375 24.7002C42.2567 24.7002 42.1383 24.7002 42.0199 24.582C41.7832 24.582 41.6648 24.582 41.4281 24.582C41.073 24.582 40.7179 24.7002 40.3628 24.8184C40.0077 24.9366 39.6526 25.1729 39.4159 25.4093C39.2975 25.5275 39.1791 25.6457 38.9424 25.882C38.824 26.0002 38.824 26.0002 38.7057 26.1184C38.5873 26.2366 38.5873 26.3548 38.5873 26.4729C38.7056 26.4729 38.824 26.5911 38.9424 26.5911C39.0608 26.5911 39.1791 26.5911 39.2975 26.7093C39.5342 26.7093 39.6526 26.7093 39.8893 26.7093C40.2444 26.7093 40.5995 26.5911 40.9546 26.4729C41.3097 26.3548 41.6648 26.1184 41.9016 25.882C42.0199 25.6457 42.2567 25.5275 42.375 25.4093Z" fill="white"/>
<path id="Vector_19" d="M35.8658 21.8638C35.5107 22.1002 35.2739 22.3365 35.0372 22.5729C34.8005 22.8093 34.5637 23.1638 34.4454 23.5184C34.327 23.6365 34.327 23.8729 34.2086 24.1093C34.2086 24.2275 34.2086 24.3456 34.2086 24.4638C34.2086 24.582 34.2086 24.7002 34.2086 24.8184C34.327 24.8184 34.4454 24.8184 34.5637 24.8184C34.6821 24.8184 34.8005 24.8184 34.9188 24.7002C35.1556 24.582 35.2739 24.582 35.5107 24.4638C35.8658 24.2275 36.1025 23.9911 36.3392 23.7547C36.576 23.5184 36.8127 23.1638 36.9311 22.8093C37.0494 22.5729 37.0494 22.4547 37.1678 22.2184C37.1678 22.1002 37.1678 21.982 37.1678 21.8638C37.1678 21.7456 37.1678 21.6275 37.1678 21.5093C37.0494 21.5093 36.9311 21.5093 36.8127 21.5093C36.6943 21.5093 36.576 21.5093 36.4576 21.6275C36.2209 21.7456 36.1025 21.7456 35.8658 21.8638Z" fill="white"/>
<path id="Vector_20" d="M37.5229 20.4458C37.6413 20.4458 37.7596 20.3276 37.878 20.3276C38.1147 20.2094 38.2331 20.2094 38.4698 20.0913C38.8249 19.8549 39.0617 19.6185 39.2984 19.3822C39.5351 19.1458 39.7719 18.7913 39.8902 18.4367C40.0086 18.2004 40.0086 18.0822 40.0086 17.8458C40.0086 17.7276 40.0086 17.6094 40.0086 17.4913C40.0086 17.3731 40.0086 17.2549 40.0086 17.1367C39.8902 17.1367 39.7719 17.1367 39.6535 17.2549C39.5351 17.2549 39.4168 17.3731 39.2984 17.3731C39.0617 17.4913 38.9433 17.4913 38.7066 17.6094C38.3515 17.8458 38.1147 18.0822 37.878 18.3185C37.6413 18.5549 37.4045 18.9094 37.2862 19.264C37.1678 19.5004 37.1678 19.6185 37.1678 19.8549C37.1678 19.9731 37.1678 20.0913 37.1678 20.2094C37.1678 20.3276 37.1678 20.4458 37.1678 20.564C37.2862 20.4458 37.4045 20.4458 37.5229 20.4458Z" fill="white"/>
<path id="Vector_21" d="M40.6002 23.1639C40.6002 23.282 40.4819 23.4002 40.4819 23.5184C40.6002 23.5184 40.7186 23.5184 40.837 23.6366C40.9553 23.6366 41.0737 23.6366 41.1921 23.6366C41.4288 23.6366 41.5472 23.6366 41.7839 23.5184C42.139 23.4002 42.4941 23.282 42.8492 23.1639C43.2043 22.9275 43.4411 22.6911 43.6778 22.4548C43.7962 22.3366 43.9145 22.1002 44.0329 21.982C44.0329 21.8639 44.1513 21.7457 44.1513 21.7457C44.1513 21.6275 44.2696 21.5093 44.2696 21.3911C44.1513 21.3911 44.0329 21.3911 43.9145 21.2729C43.7962 21.2729 43.6778 21.2729 43.5594 21.2729C43.3227 21.2729 43.2043 21.2729 42.9676 21.3911C42.6125 21.5093 42.2574 21.6275 41.9023 21.7457C41.5472 21.982 41.3104 22.2184 41.0737 22.4548C40.9553 22.5729 40.837 22.8093 40.7186 22.9275C40.6002 23.0457 40.6002 23.0457 40.6002 23.1639Z" fill="white"/>
<path id="Vector_22" d="M32.1954 30.6094C32.4322 30.7276 32.5505 30.7276 32.7873 30.7276C33.1424 30.8457 33.4975 30.8457 33.8526 30.7276C34.2077 30.7276 34.5628 30.6094 34.9179 30.373C35.0362 30.2548 35.273 30.1366 35.3914 30.0185C35.5097 29.9003 35.5097 29.9003 35.6281 29.7821C35.7465 29.6639 35.7465 29.6639 35.8648 29.5457C35.7465 29.4276 35.6281 29.4276 35.5097 29.3094C35.3914 29.3094 35.273 29.1912 35.1546 29.1912C34.9179 29.073 34.7995 29.073 34.5628 29.073C34.2077 28.9548 33.8526 28.9548 33.4975 29.073C33.1424 29.073 32.7873 29.1912 32.4322 29.4276C32.3138 29.5457 32.0771 29.6639 31.9587 29.7821C31.8403 29.9003 31.8403 29.9003 31.722 30.0185C31.6036 30.1366 31.6036 30.1366 31.4852 30.2548C31.6036 30.373 31.722 30.373 31.8403 30.4912C32.0771 30.4912 32.1954 30.6094 32.1954 30.6094Z" fill="white"/>
<path id="Vector_23" d="M14.7959 17.7276C14.7959 17.964 14.9143 18.0822 14.9143 18.3186C15.0326 18.6731 15.2694 19.0276 15.5061 19.264C15.7428 19.5004 15.9796 19.8549 16.3347 19.9731C16.453 20.0913 16.6898 20.2095 16.9265 20.2095C17.0449 20.2095 17.1632 20.3276 17.2816 20.3276C17.4 20.3276 17.5183 20.3276 17.6367 20.4458C17.6367 20.3276 17.6367 20.2095 17.6367 20.0913C17.6367 19.9731 17.6367 19.8549 17.6367 19.7367C17.6367 19.5004 17.5183 19.3822 17.5183 19.1458C17.4 18.7913 17.1632 18.4367 16.9265 18.2004C16.6898 17.964 16.453 17.6095 16.0979 17.4913C15.9796 17.3731 15.7428 17.2549 15.5061 17.2549C15.3877 17.2549 15.2694 17.1367 15.151 17.1367C15.0326 17.1367 14.9143 17.1367 14.7959 17.0186C14.7959 17.1367 14.7959 17.2549 14.7959 17.3731C14.7959 17.4913 14.7959 17.6095 14.7959 17.7276Z" fill="white"/>
<path id="Vector_24" d="M23.3186 27.7728C23.3186 27.6546 23.2002 27.5364 23.2002 27.4183C23.0819 27.1819 22.9635 27.0637 22.8451 26.9455C22.6084 26.591 22.3717 26.3546 22.0166 26.1183C21.6615 25.8819 21.4247 25.7637 21.0696 25.6455C20.8329 25.6455 20.7145 25.5273 20.4778 25.5273C20.3594 25.5273 20.241 25.5273 20.1227 25.5273C20.0043 25.5273 19.8859 25.5273 19.7676 25.5273C19.7676 25.6455 19.7676 25.7637 19.8859 25.8819C19.8859 26.0001 20.0043 26.1183 20.0043 26.2364C20.1227 26.4728 20.241 26.591 20.3594 26.7092C20.5961 27.0637 20.8329 27.3001 21.188 27.5364C21.5431 27.7728 21.7798 27.891 22.1349 28.0092C22.3717 28.0092 22.49 28.1273 22.7268 28.1273C22.8451 28.1273 22.9635 28.1273 23.0819 28.1273C23.2002 28.1273 23.3186 28.1273 23.437 28.1273C23.3186 28.0092 23.3186 27.891 23.3186 27.7728Z" fill="white"/>
<path id="Vector_25" d="M15.861 23.6367C15.7426 23.6367 15.6242 23.6367 15.5059 23.6367C15.3875 23.6367 15.2691 23.6367 15.1508 23.6367C15.1508 23.7549 15.2691 23.8731 15.2691 23.9913C15.2691 24.1094 15.3875 24.2276 15.3875 24.3458C15.5059 24.5822 15.6242 24.7004 15.7426 24.8185C15.9793 25.1731 16.2161 25.4094 16.5712 25.5276C16.9263 25.764 17.163 25.8822 17.6365 26.0004C17.8732 26.0004 17.9916 26.1185 18.2283 26.1185C18.3467 26.1185 18.465 26.1185 18.5834 26.1185C18.7018 26.1185 18.8201 26.1185 18.9385 26.1185C18.9385 26.0004 18.8201 25.8822 18.8201 25.764C18.8201 25.6458 18.7018 25.5276 18.7018 25.4094C18.5834 25.1731 18.465 25.0549 18.3467 24.9367C18.1099 24.5822 17.8732 24.3458 17.5181 24.2276C17.163 23.9913 16.8079 23.8731 16.4528 23.7549C16.3344 23.7549 16.0977 23.6367 15.861 23.6367Z" fill="white"/>
<path id="Vector_26" d="M18.3474 19.7365C18.4657 20.0911 18.5841 20.4456 18.8208 20.682C19.0576 21.0365 19.2943 21.2729 19.6494 21.5093C19.7678 21.6274 20.0045 21.7456 20.1229 21.8638C20.2412 21.8638 20.3596 21.982 20.478 21.982C20.5964 21.982 20.7147 22.1002 20.8331 22.1002C20.8331 21.982 20.8331 21.8638 20.8331 21.7456C20.8331 21.6274 20.8331 21.5093 20.8331 21.3911C20.8331 21.1547 20.7147 21.0365 20.7147 20.8002C20.5964 20.4456 20.478 20.0911 20.2412 19.8547C20.0045 19.5002 19.7678 19.2638 19.4127 19.0274C19.2943 18.9093 19.0576 18.7911 18.9392 18.6729C18.8208 18.6729 18.7025 18.5547 18.5841 18.5547C18.4657 18.5547 18.3474 18.4365 18.229 18.4365C18.229 18.5547 18.229 18.6729 18.229 18.7911C18.229 18.9092 18.229 19.0274 18.229 19.1456C18.229 19.382 18.3474 19.5002 18.3474 19.7365Z" fill="white"/>
<path id="Vector_27" d="M27.6977 21.0367C27.6977 20.9185 27.5794 20.8003 27.461 20.8003C27.3426 20.6821 27.3426 20.564 27.2243 20.564C27.1059 20.6821 27.1059 20.8003 26.9875 20.8003C26.8692 20.9185 26.8692 21.0367 26.8692 21.0367C26.7508 21.2731 26.6324 21.3912 26.6324 21.6276C26.5141 21.9821 26.3957 22.3367 26.3957 22.6912C26.3957 23.0458 26.3957 23.4003 26.6324 23.7549C26.7508 23.9912 26.7508 24.1094 26.8692 24.3458C26.8692 24.464 26.9875 24.5821 26.9875 24.5821C27.2243 24.7003 27.2243 24.8185 27.3426 24.8185C27.461 24.7003 27.461 24.5821 27.5794 24.5821C27.6977 24.464 27.6977 24.3458 27.8161 24.3458C27.9345 24.1094 28.0528 23.9912 28.0528 23.7549C28.1712 23.4003 28.2896 23.0458 28.2896 22.6912C28.2896 22.3367 28.2896 21.9821 28.0528 21.6276C27.9345 21.3912 27.8161 21.1549 27.6977 21.0367Z" fill="white"/>
<path id="Vector_28" d="M17.6372 22.2184C17.6372 22.4547 17.7556 22.5729 17.8739 22.8093C17.9923 23.1638 18.229 23.5184 18.4658 23.7547C18.7025 23.9911 18.9392 24.2275 19.2943 24.4638C19.4127 24.582 19.6495 24.7002 19.8862 24.7002C20.0046 24.7002 20.1229 24.8184 20.2413 24.8184C20.3597 24.8184 20.478 24.8184 20.5964 24.8184C20.5964 24.7002 20.5964 24.582 20.5964 24.4638C20.5964 24.3456 20.5964 24.2275 20.5964 24.1093C20.5964 23.8729 20.478 23.7547 20.3597 23.5184C20.2413 23.1638 20.0046 22.8093 19.7678 22.5729C19.5311 22.3365 19.2944 22.1002 18.9392 21.8638C18.8209 21.7456 18.5841 21.6275 18.3474 21.6275C18.229 21.6275 18.1107 21.5093 17.9923 21.5093C17.8739 21.5093 17.7556 21.5093 17.6372 21.5093C17.6372 21.6275 17.6372 21.7456 17.6372 21.8638C17.6372 21.982 17.6372 22.1002 17.6372 22.2184Z" fill="white"/>
<path id="Vector_29" d="M14.0854 20.9181C14.2038 21.1545 14.2038 21.2726 14.3221 21.509C14.5589 21.8635 14.7956 22.0999 15.0323 22.3363C15.2691 22.5726 15.6242 22.809 15.9793 22.9272C16.216 23.0454 16.3344 23.0454 16.5711 23.0454C16.6895 23.0454 16.8079 23.0454 16.9262 23.0454C17.0446 23.0454 17.163 23.0454 17.2813 23.0454C17.2813 22.9272 17.2813 22.809 17.2813 22.6908C17.2813 22.5726 17.2813 22.4545 17.163 22.3363C17.0446 22.0999 17.0446 21.9817 16.9262 21.7454C16.6895 21.3908 16.4528 21.1545 16.216 20.9181C15.9793 20.6817 15.6242 20.4454 15.2691 20.3272C15.0323 20.209 14.914 20.209 14.6772 20.0908C14.5589 20.0908 14.4405 20.0908 14.3221 20.0908C14.2038 20.0908 14.0854 20.0908 13.967 20.0908C13.967 20.209 13.967 20.3272 13.967 20.4454C13.967 20.7999 13.967 20.9181 14.0854 20.9181Z" fill="white"/>
<path id="Vector_30" d="M27.3424 33.2093C26.0403 31.5548 18.9383 33.2093 7.81177 27.7729C13.9669 32.9729 20.122 33.5639 23.5546 34.1548C25.3301 34.5093 24.975 41.6002 24.0281 42.0729H27.224H30.4199C29.473 41.6002 29.1179 34.3911 30.8934 34.1548C34.4444 33.5639 40.4812 32.8548 46.6363 27.7729C35.7465 33.2093 28.6444 31.5548 27.3424 33.2093Z" fill="white"/>
<path id="Vector_31" d="M8.64054 26.9458C8.75891 27.064 8.99564 27.1822 9.11401 27.3004C9.46911 27.5367 9.82422 27.6549 10.1793 27.7731C10.5344 27.8913 10.8895 27.8913 11.2446 27.8913C11.4814 27.8913 11.5997 27.7731 11.8365 27.7731C11.9548 27.7731 12.0732 27.6549 12.1916 27.6549C12.3099 27.6549 12.4283 27.5367 12.5467 27.5367C12.4283 27.4186 12.4283 27.3004 12.3099 27.3004C12.1916 27.1822 12.1916 27.1822 12.0732 27.064C11.9548 26.9458 11.7181 26.8276 11.5997 26.7095C11.2446 26.4731 10.8895 26.3549 10.5344 26.3549C10.061 26.0004 9.70585 25.8822 9.35075 26.0004C9.11401 26.0004 8.99564 26.1186 8.75891 26.1186C8.64054 26.1186 8.52218 26.2367 8.40381 26.2367C8.28544 26.2367 8.16707 26.3549 8.04871 26.3549C8.16707 26.4731 8.16707 26.5913 8.28544 26.5913C8.40381 26.7095 8.52218 26.8276 8.64054 26.9458Z" fill="white"/>
<path id="Vector_32" d="M10.6529 21.982C10.7712 22.2184 10.8896 22.3366 11.008 22.4548C11.2447 22.6911 11.5998 22.9275 11.8365 23.1639C12.1916 23.4002 12.5467 23.5184 12.9019 23.5184C13.1386 23.5184 13.257 23.6366 13.4937 23.6366C13.6121 23.6366 13.7304 23.6366 13.8488 23.6366C13.9672 23.6366 14.0855 23.6366 14.2039 23.5184C14.2039 23.4002 14.0855 23.282 14.0855 23.1639C14.0855 23.0457 13.9672 22.9275 13.9672 22.9275C13.8488 22.6911 13.7304 22.5729 13.6121 22.4548C13.3753 22.2184 13.0202 21.982 12.7835 21.7457C12.4284 21.5093 12.0733 21.3911 11.7182 21.3911C11.4814 21.3911 11.3631 21.3911 11.1263 21.2729C11.008 21.2729 10.8896 21.2729 10.7712 21.2729C10.6529 21.2729 10.5345 21.2729 10.4161 21.2729C10.4161 21.3911 10.5345 21.5093 10.5345 21.6275C10.5345 21.7457 10.6529 21.8639 10.6529 21.982Z" fill="white"/>
<path id="Vector_33" d="M18.8204 16.7821C19.0571 17.1366 19.2939 17.373 19.5306 17.6094C19.649 17.7275 19.8857 17.8457 20.0041 17.9639C20.1224 17.9639 20.2408 18.0821 20.2408 18.0821C20.3592 18.0821 20.4775 18.2003 20.5959 18.2003C20.5959 18.0821 20.5959 17.9639 20.7143 17.8457C20.7143 17.7275 20.7143 17.6094 20.7143 17.4912C20.7143 17.2548 20.7143 17.1366 20.5959 16.9003C20.4775 16.5457 20.3592 16.1912 20.2408 15.8366C20.0041 15.4821 19.7673 15.2457 19.5306 15.0094C19.4122 14.8912 19.1755 14.773 19.0571 14.6548C18.9388 14.6548 18.8204 14.5366 18.8204 14.5366C18.702 14.5366 18.5837 14.4185 18.4653 14.4185C18.4653 14.5366 18.4653 14.6548 18.3469 14.773C18.3469 14.8912 18.3469 15.0094 18.3469 15.1275C18.3469 15.3639 18.3469 15.4821 18.4653 15.7185C18.4653 16.073 18.5837 16.4275 18.8204 16.7821Z" fill="white"/>
<path id="Vector_34" d="M22.8446 20.0909C22.7263 19.9727 22.6079 19.8546 22.3712 19.7364C22.2528 19.6182 22.1344 19.6182 22.1344 19.5C22.0161 19.5 21.8977 19.3818 21.7793 19.3818C21.7793 19.5 21.6609 19.6182 21.6609 19.7364C21.6609 19.8546 21.6609 19.9727 21.6609 20.0909C21.6609 20.3273 21.6609 20.4455 21.6609 20.6818C21.6609 21.0364 21.7793 21.3909 21.8977 21.7455C22.0161 22.1 22.2528 22.3364 22.4895 22.6909C22.6079 22.8091 22.7263 22.9273 22.963 23.0455C23.0814 23.1637 23.1997 23.1637 23.1997 23.2818C23.3181 23.2818 23.4365 23.4 23.5548 23.4C23.5548 23.2818 23.6732 23.1637 23.6732 23.0455C23.6732 22.9273 23.6732 22.8091 23.6732 22.6909C23.6732 22.4546 23.6732 22.3364 23.6732 22.1C23.6732 21.7455 23.5548 21.3909 23.4365 21.0364C23.3181 20.6818 23.1997 20.4455 22.8446 20.0909Z" fill="white"/>
<path id="Vector_35" d="M24.8574 17.8457C24.739 17.9639 24.739 18.0821 24.739 18.2002C24.739 18.3184 24.6206 18.4366 24.6206 18.5548C24.5023 18.7912 24.5023 18.9093 24.5023 19.1457C24.5023 19.5002 24.5023 19.8548 24.6206 20.2093C24.739 20.5639 24.8574 20.9184 25.0941 21.273C25.2125 21.3912 25.3308 21.6275 25.4492 21.7457C25.5676 21.8639 25.5676 21.8639 25.6859 21.9821C25.8043 22.1002 25.9227 22.1002 25.9227 22.2184C26.041 22.1002 26.041 21.9821 26.041 21.8639C26.041 21.7457 26.1594 21.6275 26.1594 21.5093C26.2778 21.273 26.2778 21.1548 26.2778 20.9184C26.2778 20.5639 26.2778 20.2093 26.1594 19.8548C26.041 19.5002 25.9227 19.1457 25.6859 18.7912C25.5676 18.673 25.4492 18.4366 25.3308 18.3184C25.2125 18.2002 25.2125 18.2002 25.0941 18.0821C25.0941 17.9639 24.9757 17.8457 24.8574 17.8457Z" fill="white"/>
<path id="Vector_36" d="M19.1753 30.1364C19.2936 30.2546 19.5304 30.3727 19.6487 30.4909C20.0038 30.6091 20.3589 30.7273 20.714 30.8455C21.0691 30.8455 21.4242 30.8455 21.7793 30.8455C22.0161 30.8455 22.1344 30.7273 22.3712 30.7273C22.4895 30.7273 22.6079 30.6091 22.7263 30.6091C22.8446 30.6091 22.963 30.4909 23.0814 30.3727C22.963 30.2546 22.963 30.1364 22.8446 30.1364C22.7263 30.0182 22.7263 30.0182 22.6079 29.9C22.4895 29.7818 22.2528 29.6636 22.1344 29.5455C21.7793 29.4273 21.4242 29.3091 21.0691 29.1909C20.714 29.1909 20.3589 29.1909 20.0038 29.1909C19.7671 29.1909 19.6487 29.3091 19.412 29.3091C19.2936 29.3091 19.1753 29.4273 19.0569 29.4273C18.9385 29.4273 18.8201 29.5455 18.7018 29.6636C18.8201 29.7818 18.8201 29.9 18.9385 29.9C18.9385 30.0182 19.0569 30.1364 19.1753 30.1364Z" fill="white"/>
<path id="Vector_37" d="M26.7508 19.2637C26.7508 19.3819 26.8692 19.5001 26.8692 19.5001C26.9875 19.6183 26.9875 19.7365 27.1059 19.7365C27.2243 19.6183 27.3426 19.6183 27.3426 19.5001C27.461 19.3819 27.461 19.3819 27.5794 19.2637C27.6977 19.1456 27.8161 18.9092 27.8161 18.791C27.9345 18.4365 28.0528 18.0819 28.0528 17.7274C28.0528 17.3728 28.0528 17.0183 27.9345 16.6637C27.9345 16.4274 27.8161 16.3092 27.6977 16.0728C27.6977 15.9546 27.5794 15.8365 27.5794 15.8365C27.461 15.7183 27.461 15.6001 27.3426 15.6001C27.2243 15.7183 27.1059 15.7183 27.1059 15.8365C26.9875 15.9546 26.9875 15.9546 26.8692 16.0728C26.7508 16.191 26.6324 16.4274 26.6324 16.5456C26.5141 16.9001 26.3957 17.2546 26.3957 17.6092C26.3957 17.9637 26.3957 18.3183 26.5141 18.6728C26.6324 18.791 26.7508 19.0274 26.7508 19.2637Z" fill="white"/>
<path id="Vector_38" d="M24.0283 15.6001C24.1467 15.7183 24.2651 15.9547 24.3835 16.0729C24.5018 16.191 24.5018 16.191 24.6202 16.3092C24.7386 16.4274 24.7386 16.4274 24.8569 16.5456C24.9753 16.4274 24.9753 16.3092 25.0937 16.191C25.0937 16.0729 25.212 15.9547 25.212 15.8365C25.3304 15.6001 25.3304 15.4819 25.3304 15.2456C25.4488 14.891 25.4488 14.5365 25.3304 14.1819C25.3304 13.8274 25.212 13.4729 24.9753 13.1183C24.8569 13.0001 24.7386 12.7638 24.6202 12.6456C24.5018 12.5274 24.5018 12.5274 24.3835 12.4092C24.2651 12.291 24.2651 12.291 24.1467 12.1729C24.0283 12.291 24.0284 12.4092 23.91 12.5274C23.91 12.6456 23.7916 12.7638 23.7916 12.8819C23.6732 13.1183 23.6732 13.2365 23.6732 13.4729C23.5549 13.8274 23.5549 14.1819 23.6732 14.5365C23.6732 14.891 23.7916 15.2456 24.0283 15.6001Z" fill="white"/>
<path id="Vector_39" d="M14.9145 26.5911C15.1513 26.5911 15.2696 26.5911 15.5064 26.5911C15.6248 26.5911 15.7431 26.5911 15.8615 26.473C15.9799 26.473 16.0982 26.3548 16.2166 26.3548C16.2166 26.2366 16.0982 26.1184 16.0982 26.0002C15.9799 25.882 15.9799 25.7639 15.8615 25.7639C15.7431 25.6457 15.6248 25.4093 15.388 25.2911C15.0329 25.0548 14.7962 24.8184 14.4411 24.7002C14.086 24.582 13.7309 24.4639 13.3758 24.4639C13.139 24.4639 13.0207 24.4639 12.7839 24.4639C12.6656 24.4639 12.5472 24.4639 12.4288 24.582C12.3105 24.582 12.1921 24.7002 12.0737 24.7002C12.0737 24.8184 12.1921 24.9366 12.1921 25.0548C12.3105 25.173 12.3105 25.2911 12.4288 25.2911C12.5472 25.4093 12.6656 25.6457 12.9023 25.7639C13.2574 26.0002 13.4941 26.2366 13.8492 26.3548C14.086 26.473 14.4411 26.5911 14.9145 26.5911Z" fill="white"/>
<path id="Vector_40" d="M18.4653 28.4817C18.8204 28.5999 19.1755 28.7181 19.5306 28.7181C19.7673 28.7181 19.8857 28.7181 20.1224 28.7181C20.2408 28.7181 20.3592 28.7181 20.4775 28.5999C20.5959 28.5999 20.7143 28.4817 20.8326 28.4817C20.8326 28.3635 20.7143 28.2454 20.5959 28.1272C20.4775 28.009 20.4775 27.8908 20.3592 27.8908C20.2408 27.7726 20.1224 27.5363 19.8857 27.4181C19.5306 27.1817 19.2939 26.9454 18.9388 26.8272C18.5837 26.709 18.2286 26.5908 17.8735 26.5908C17.6367 26.5908 17.5184 26.5908 17.2816 26.5908C17.1632 26.5908 17.0449 26.5908 16.9265 26.709C16.8081 26.709 16.6898 26.8272 16.5714 26.8272C16.5714 26.9454 16.6898 27.0635 16.8081 27.1817C16.9265 27.2999 16.9265 27.4181 17.0449 27.4181C17.1632 27.5363 17.2816 27.7726 17.5184 27.8908C17.8735 28.1272 18.2286 28.3635 18.4653 28.4817Z" fill="white"/>
<path id="Vector_41" d="M20.7143 22.6909C20.7143 22.8091 20.7143 22.9273 20.7143 23.0455C20.7143 23.1636 20.7143 23.2818 20.7143 23.4C20.7143 23.6364 20.8327 23.7546 20.8327 23.9909C20.951 24.3455 21.1878 24.7 21.4245 24.9364C21.6612 25.1727 21.898 25.4091 22.2531 25.6455C22.3714 25.7636 22.6082 25.8818 22.8449 25.8818C22.9633 25.8818 23.0816 26 23.2 26C23.3184 26 23.4367 26 23.5551 26C23.5551 25.8818 23.5551 25.7636 23.5551 25.6455C23.5551 25.5273 23.5551 25.4091 23.5551 25.2909C23.5551 25.0546 23.4367 24.9364 23.4367 24.7C23.3184 24.3455 23.0816 23.9909 22.8449 23.7546C22.6082 23.5182 22.3714 23.2818 22.0163 23.0455C21.898 22.9273 21.6612 22.8091 21.4245 22.8091C21.3061 22.8091 21.1878 22.6909 21.0694 22.6909C20.951 22.6909 20.951 22.6909 20.7143 22.6909Z" fill="white"/>
<path id="Vector_42" d="M13.4939 28.4821C13.6122 28.6002 13.849 28.7184 13.9673 28.8366C14.3224 29.073 14.6775 29.1911 15.0326 29.3093C15.3877 29.4275 15.7428 29.4275 16.0979 29.4275C16.3347 29.4275 16.453 29.4275 16.6898 29.3093C16.8081 29.3093 16.9265 29.1912 17.0449 29.1912C17.1632 29.1912 17.2816 29.073 17.4 29.073C17.2816 28.9548 17.2816 28.8366 17.1632 28.8366C17.0449 28.7184 17.0449 28.7184 16.9265 28.6002C16.8081 28.4821 16.5714 28.3639 16.453 28.2457C16.0979 28.0093 15.7428 27.8911 15.3877 27.773C15.0326 27.6548 14.6775 27.6548 14.3224 27.6548C14.0857 27.6548 13.9673 27.6548 13.7306 27.773C13.6122 27.773 13.4939 27.8911 13.3755 27.8911C13.2571 27.8911 13.1388 28.0093 13.0204 28.0093C13.1388 28.1275 13.1388 28.2457 13.2571 28.2457C13.3755 28.3639 13.4939 28.4821 13.4939 28.4821Z" fill="white"/>
<path id="Vector_43" d="M21.8982 18.0819C22.0166 18.4364 22.2533 18.6728 22.49 19.0274C22.6084 19.1455 22.7268 19.2637 22.9635 19.3819C23.0819 19.5001 23.2002 19.5001 23.2002 19.5001C23.3186 19.5001 23.437 19.6183 23.5553 19.6183C23.5553 19.5001 23.6737 19.3819 23.6737 19.2637C23.6737 19.1455 23.6737 19.0274 23.6737 18.9092C23.6737 18.6728 23.6737 18.5546 23.6737 18.3183C23.6737 17.9637 23.5553 17.6092 23.3186 17.2546C23.2002 16.9001 22.9635 16.6637 22.7268 16.3092C22.6084 16.191 22.49 16.0728 22.2533 15.9546C22.1349 15.8364 22.0166 15.8364 22.0166 15.8364C21.8982 15.8364 21.7798 15.7183 21.6615 15.7183C21.6615 15.8364 21.5431 15.9546 21.5431 16.0728C21.5431 16.191 21.5431 16.3092 21.5431 16.4274C21.5431 16.6637 21.5431 16.7819 21.5431 17.0183C21.6615 17.3728 21.7798 17.7274 21.8982 18.0819Z" fill="white"/>
</g>
</g>
</g>
<g id="Group_4">
<path id="Vector_44" d="M69.0082 22.3361C68.4163 24.227 68.1796 26.4725 68.1796 29.0725C68.1796 29.6634 68.1796 30.2543 68.1796 30.9634C68.1796 31.6725 68.298 32.2634 68.298 32.9725C68.5347 34.5089 68.8898 35.8088 69.4816 37.1088C70.0735 38.4088 71.1388 38.9998 72.5592 39.1179H72.6775C72.6775 39.1179 72.6775 39.1179 72.7959 39.1179C74.3347 39.1179 75.4 38.527 76.1102 37.3452C76.702 36.1634 77.1755 34.8634 77.2939 33.327C77.4122 32.7361 77.4122 32.1452 77.4122 31.5543C77.4122 30.9634 77.4122 30.4907 77.4122 29.8998V28.2452C77.4122 27.7725 77.4122 27.1816 77.4122 26.5907C77.4122 25.9998 77.2939 25.2907 77.1755 24.6998C76.9388 23.5179 76.5837 22.3361 75.8735 21.2725C75.2816 20.2089 74.2163 19.6179 72.7959 19.4998C70.7837 19.6179 69.4816 20.4452 69.0082 22.3361ZM78.1224 21.0361C78.951 23.0452 79.4245 25.6452 79.4245 29.0725C79.4245 29.6634 79.4245 30.3725 79.4245 31.1998C79.4245 31.9088 79.3061 32.7361 79.3061 33.4452C79.0694 35.2179 78.4775 36.8725 77.649 38.4088C76.702 39.9452 75.1633 40.6543 72.7959 40.6543C70.5469 40.6543 69.0082 39.827 68.1796 38.2907C67.351 36.7543 66.8775 34.9816 66.6408 33.0907C66.2857 32.3816 66.2857 31.6725 66.2857 30.9634C66.2857 30.2543 66.2857 29.5452 66.2857 28.9543C66.2857 28.8361 66.2857 28.7179 66.2857 28.5998C66.2857 28.4816 66.2857 28.3634 66.2857 28.2452C66.2857 28.127 66.2857 28.0089 66.2857 27.7725C66.2857 27.6543 66.2857 27.4179 66.2857 27.2998C66.2857 26.827 66.2857 26.2361 66.2857 25.6452C66.2857 25.0543 66.4041 24.4634 66.5224 23.8725C66.7592 22.4543 67.351 21.0361 68.298 19.8543C69.2449 18.6725 70.7837 17.9634 72.9143 17.8452C75.5184 18.0816 77.2939 19.1452 78.1224 21.0361Z" fill="white"/>
<path id="Vector_45" d="M83.8041 18.1997H86.4082L91.1428 28.7179L94.3388 37.1088V18.1997H96.4694V40.2997H94.102L85.9347 21.2724V40.2997H83.8041V18.1997Z" fill="white"/>
<path id="Vector_46" d="M111.502 18.1997V20.327H103.571V27.5361H110.673V29.5452H103.571V38.1724H111.502V40.1815H101.204V18.1997H111.502Z" fill="white"/>
<path id="Vector_47" d="M116 33.7997C116.237 35.5725 116.71 36.7543 117.42 37.5816C118.131 38.4088 119.078 38.8816 120.38 38.8816C120.498 38.8816 120.616 38.8816 120.735 38.8816C120.853 38.8816 120.971 38.8816 121.09 38.8816C121.918 38.7634 122.747 38.2906 123.457 37.5816C124.167 36.8725 124.522 35.8088 124.522 34.5088V33.6816C124.404 32.7361 124.049 32.1452 123.339 31.6725C122.629 31.1997 121.8 30.727 120.853 30.3725C120.616 30.2543 120.498 30.2543 120.261 30.1361C120.024 30.0179 119.788 29.8997 119.669 29.8997C118.367 29.427 117.302 28.7179 116.237 27.7725C115.171 26.9452 114.698 25.527 114.698 23.6361C114.698 23.5179 114.698 23.5179 114.698 23.3997C114.698 23.2816 114.698 23.1634 114.698 23.1634V23.0452C114.698 23.0452 114.698 23.0452 114.698 22.927C114.698 22.8088 114.698 22.8088 114.698 22.6907C114.698 22.5725 114.698 22.5725 114.698 22.4543C114.816 21.0361 115.408 19.8543 116.473 19.1452C117.539 18.4361 118.722 18.0816 119.906 17.9634H120.261C120.38 17.9634 120.498 17.9634 120.616 17.9634C121.918 18.0816 123.22 18.5543 124.286 19.4997C125.351 20.4452 125.943 21.627 126.061 23.2816H123.931C123.931 22.2179 123.576 21.3907 122.865 20.6816C122.155 19.9725 121.327 19.4997 120.38 19.3816C120.261 19.3816 120.143 19.3816 120.143 19.3816C120.024 19.3816 119.906 19.3816 119.906 19.3816C119.078 19.3816 118.367 19.6179 117.776 20.2088C117.065 20.7997 116.71 21.7452 116.592 23.0452V23.1634V23.2816C116.592 23.3997 116.592 23.3997 116.592 23.5179V23.6361C116.592 25.0543 117.065 26.1179 118.012 26.7088C118.959 27.2997 120.024 27.8907 121.208 28.3634C121.327 28.3634 121.327 28.4816 121.445 28.4816C121.563 28.4816 121.563 28.4816 121.682 28.5997C122.865 29.0725 124.049 29.6634 125.114 30.4907C126.18 31.1997 126.653 32.3816 126.771 34.1543V34.2725C126.771 36.2816 126.18 37.9361 124.878 38.9997C123.576 40.0634 122.273 40.6543 120.735 40.7725H120.498H120.261C118.722 40.7725 117.302 40.1816 116.118 39.1179C114.816 38.0543 114.224 36.3997 114.224 34.1543V34.0361C114.224 34.0361 114.224 34.0361 114.224 33.9179V33.7997V33.6816L116 33.7997Z" fill="white"/>
<path id="Vector_48" d="M141.094 18.1997V20.327H136.004V40.2997H133.873V20.327H128.784V18.1997H141.094Z" fill="white"/>
<path id="Vector_49" d="M146.775 22.3361C146.184 24.2271 145.947 26.4725 145.947 29.0725C145.947 29.6634 145.947 30.2543 145.947 30.9634C145.947 31.6725 146.065 32.2634 146.065 32.9725C146.302 34.5089 146.657 35.8089 147.249 37.1089C147.841 38.4089 148.906 38.9998 150.327 39.118H150.445C150.445 39.118 150.445 39.118 150.563 39.118C152.102 39.118 153.167 38.5271 153.878 37.3452C154.469 36.1634 154.943 34.8634 155.061 33.3271C155.18 32.7361 155.18 32.1452 155.18 31.5543C155.18 30.9634 155.18 30.4907 155.18 29.8998V28.2452C155.18 27.7725 155.18 27.1816 155.18 26.5907C155.18 25.9998 155.061 25.2907 154.943 24.6998C154.706 23.518 154.351 22.3361 153.641 21.2725C153.049 20.2089 151.984 19.618 150.563 19.4998C148.669 19.618 147.367 20.4452 146.775 22.3361ZM156.008 21.0361C156.837 23.0452 157.31 25.6452 157.31 29.0725C157.31 29.6634 157.31 30.3725 157.31 31.1998C157.31 31.9089 157.192 32.7361 157.192 33.4452C156.955 35.218 156.363 36.8725 155.535 38.4089C154.588 39.9452 153.049 40.6543 150.682 40.6543C148.433 40.6543 146.894 39.8271 146.065 38.2907C145.237 36.7543 144.763 34.9816 144.527 33.0907C144.408 32.3816 144.408 31.5543 144.408 30.8452C144.408 30.1361 144.408 29.4271 144.408 28.8361C144.408 28.718 144.408 28.5998 144.408 28.4816C144.408 28.3634 144.408 28.2452 144.408 28.1271C144.408 28.0089 144.408 27.8907 144.408 27.6543C144.408 27.5361 144.408 27.2998 144.408 27.1816C144.408 26.7089 144.408 26.118 144.408 25.5271C144.408 24.9361 144.527 24.3452 144.645 23.7543C144.882 22.3361 145.473 20.918 146.42 19.7361C147.367 18.5543 148.906 17.8452 151.037 17.7271C153.404 18.0816 155.061 19.1452 156.008 21.0361Z" fill="white"/>
<path id="Vector_50" d="M164.176 28.4815H167.49C168.91 28.4815 169.976 28.0088 170.686 27.1815C171.396 26.3543 171.869 25.4088 171.869 24.3452V24.227V24.1088V23.9906V23.8724C171.751 22.927 171.396 21.9815 170.686 21.1543C169.976 20.327 168.91 19.9724 167.608 19.9724H164.057V28.4815H164.176ZM167.253 18.1997C169.62 18.1997 171.278 18.7906 172.343 19.9724C173.408 21.1543 173.882 22.4543 173.882 23.7543V24.1088C173.882 24.227 173.882 24.3452 173.882 24.3452C173.763 25.8815 173.053 27.1815 171.869 28.4815C170.686 29.6633 169.029 30.3724 167.016 30.3724H164.176V40.2997H162.163V18.1997H167.253Z" fill="white"/>
</g>
<g id="Group_5">
<path id="Vector_51" d="M66.1678 47.0361H73.5066L79.3066 64.527L78.3596 47.0361H85.4617V77.1725H78.0045L72.2045 60.3907L73.1515 77.1725H66.1678V47.0361Z" fill="white"/>
<path id="Vector_52" d="M100.968 71.3816C101.797 71.027 102.27 70.1998 102.27 68.7816V54.9543C102.27 53.7725 101.915 53.0634 101.205 52.7089C100.495 52.3543 99.6662 52.1179 98.8376 52.1179H98.2458H97.7723V71.9725C99.0744 71.8543 100.14 71.7361 100.968 71.3816ZM90.3152 47.0361H98.7193C102.744 47.0361 105.466 47.5089 107.123 48.3361C108.78 49.2816 109.609 51.0543 109.609 53.8907V69.8452C109.609 72.0907 108.899 73.8634 107.478 75.1634C106.058 76.4634 103.691 77.1725 100.376 77.1725H90.4336V47.0361H90.3152Z" fill="white"/>
<path id="Vector_53" d="M118.605 53.0634H112.923V47.0361H131.388V53.0634H126.062V77.2907H118.605V53.0634Z" fill="white"/>
</g>
</g>
</g>
<defs>
<clipPath id="clip0_1_4969">
<rect width="174" height="78" fill="white"/>
</clipPath>
</defs>
</svg>
