<svg width="25" height="24" viewBox="0 0 25 24" fill="none" xmlns="http://www.w3.org/2000/svg">
<path fill-rule="evenodd" clip-rule="evenodd" d="M7.32723 0.072C8.65098 0.0130909 9.07305 0 12.4451 0C15.8171 0 16.2391 0.0141818 17.5618 0.072C18.8844 0.129818 19.7872 0.333818 20.5771 0.629455C21.4043 0.931636 22.1548 1.404 22.7755 2.01491C23.4075 2.61382 23.895 3.33818 24.2065 4.13891C24.5134 4.90255 24.7233 5.77527 24.7843 7.05164C24.8452 8.33346 24.8587 8.74146 24.8587 12C24.8587 15.2596 24.8441 15.6676 24.7843 16.9473C24.7244 18.2236 24.5134 19.0964 24.2065 19.86C23.895 20.6608 23.4067 21.3864 22.7755 21.9862C22.1548 22.5971 21.4043 23.0684 20.5771 23.3695C19.7872 23.6662 18.8844 23.8691 17.564 23.928C16.2391 23.9869 15.8171 24 12.4451 24C9.07305 24 8.65098 23.9858 7.32723 23.928C6.00687 23.8702 5.10405 23.6662 4.31409 23.3695C3.48567 23.0683 2.7351 22.5963 2.11461 21.9862C1.48307 21.3869 0.994352 20.6617 0.682526 19.8611C0.376698 19.0975 0.166794 18.2247 0.105854 16.9484C0.0449143 15.6665 0.0313721 15.2585 0.0313721 12C0.0313721 8.74036 0.0460428 8.33236 0.105854 7.05382C0.165666 5.77527 0.376698 4.90255 0.682526 4.13891C0.994812 3.33827 1.48391 2.61307 2.11574 2.01382C2.73534 1.40346 3.48517 0.931029 4.31296 0.629455C5.10293 0.333818 6.00574 0.130909 7.3261 0.072H7.32723ZM17.4613 2.232C16.1522 2.17418 15.7595 2.16218 12.4451 2.16218C9.1306 2.16218 8.73788 2.17418 7.4288 2.232C6.2179 2.28545 5.5611 2.48073 5.12324 2.64545C4.54431 2.86364 4.13015 3.12218 3.69567 3.54218C3.28381 3.92951 2.96685 4.40104 2.76802 4.92218C2.59762 5.34545 2.39561 5.98036 2.34032 7.15091C2.28051 8.41636 2.26809 8.796 2.26809 12C2.26809 15.204 2.28051 15.5836 2.34032 16.8491C2.39561 18.0196 2.59762 18.6545 2.76802 19.0778C2.96664 19.5982 3.28376 20.0705 3.69567 20.4578C4.09629 20.856 4.58494 21.1625 5.12324 21.3545C5.5611 21.5193 6.2179 21.7145 7.4288 21.768C8.73788 21.8258 9.12947 21.8378 12.4451 21.8378C15.7606 21.8378 16.1522 21.8258 17.4613 21.768C18.6722 21.7145 19.329 21.5193 19.7669 21.3545C20.3458 21.1364 20.76 20.8778 21.1944 20.4578C21.6064 20.0705 21.9235 19.5982 22.1221 19.0778C22.2925 18.6545 22.4945 18.0196 22.5498 16.8491C22.6096 15.5836 22.622 15.204 22.622 12C22.622 8.796 22.6096 8.41636 22.5498 7.15091C22.4945 5.98036 22.2925 5.34545 22.1221 4.92218C21.8964 4.36255 21.6289 3.96218 21.1944 3.54218C20.7937 3.14408 20.306 2.83768 19.7669 2.64545C19.329 2.48073 18.6722 2.28545 17.4613 2.232ZM10.8595 15.6993C11.745 16.0556 12.731 16.1037 13.6491 15.8353C14.5672 15.567 15.3605 14.9988 15.8934 14.2279C16.4263 13.457 16.6658 12.5311 16.571 11.6085C16.4762 10.6858 16.0529 9.82361 15.3736 9.16909C14.9405 8.7507 14.4168 8.43034 13.8403 8.23107C13.2637 8.0318 12.6487 7.95858 12.0393 8.01667C11.43 8.07477 10.8416 8.26274 10.3165 8.56705C9.7913 8.87136 9.34247 9.28445 9.00229 9.77657C8.66211 10.2687 8.43903 10.8276 8.34912 11.413C8.25921 11.9985 8.3047 12.596 8.48231 13.1624C8.65993 13.7288 8.96525 14.2501 9.3763 14.6888C9.78735 15.1275 10.2939 15.4726 10.8595 15.6993ZM7.93325 7.63855C8.52575 7.06579 9.22914 6.61146 10.0033 6.30149C10.7774 5.99151 11.6071 5.83197 12.4451 5.83197C13.283 5.83197 14.1127 5.99151 14.8868 6.30149C15.661 6.61146 16.3644 7.06579 16.9569 7.63855C17.5494 8.2113 18.0194 8.89126 18.34 9.6396C18.6607 10.3879 18.8257 11.19 18.8257 12C18.8257 12.81 18.6607 13.6121 18.34 14.3604C18.0194 15.1087 17.5494 15.7887 16.9569 16.3615C15.7603 17.5182 14.1373 18.168 12.4451 18.168C10.7528 18.168 9.12985 17.5182 7.93325 16.3615C6.73664 15.2047 6.06439 13.6359 6.06439 12C6.06439 10.3641 6.73664 8.79528 7.93325 7.63855ZM20.2409 6.75055C20.3877 6.61666 20.5052 6.45565 20.5865 6.27706C20.6678 6.09847 20.7112 5.90593 20.7142 5.71083C20.7171 5.51574 20.6795 5.32205 20.6036 5.14125C20.5278 4.96044 20.4151 4.79619 20.2724 4.65822C20.1297 4.52026 19.9598 4.41137 19.7727 4.33802C19.5857 4.26467 19.3853 4.22834 19.1835 4.23118C18.9817 4.23403 18.7825 4.27599 18.5978 4.35458C18.413 4.43317 18.2465 4.54679 18.108 4.68873C17.8386 4.96476 17.6911 5.33141 17.6968 5.71083C17.7026 6.09026 17.861 6.4526 18.1386 6.72092C18.4162 6.98924 18.791 7.14243 19.1835 7.14796C19.576 7.15349 19.9553 7.01093 20.2409 6.75055Z" fill="white"/>
</svg>
