<svg width="27" height="24" viewBox="0 0 27 24" fill="none" xmlns="http://www.w3.org/2000/svg">
<path fill-rule="evenodd" clip-rule="evenodd" d="M6.92522 2.79706C6.92522 4.35191 5.71449 5.59605 3.77047 5.59605H3.73484C1.86307 5.59605 0.653015 4.35191 0.653015 2.79706C0.653015 1.20932 1.89993 0 3.80721 0C5.71449 0 6.88903 1.20932 6.92522 2.79706ZM6.55938 7.80303V23.9963H0.984062V7.80303H6.55938ZM26.6703 24.0001L26.6705 14.7154C26.6705 9.7415 23.9201 7.42657 20.2512 7.42657C17.2911 7.42657 15.9658 8.9983 15.2258 10.1009V7.80725H9.64986C9.72335 9.32675 9.64986 24.0005 9.64986 24.0005H15.2258V14.9569C15.2258 14.4729 15.262 13.9901 15.4094 13.6436C15.8124 12.6768 16.7298 11.6757 18.2701 11.6757C20.2884 11.6757 21.0952 13.1606 21.0952 15.3367V24.0001H26.6703Z" fill="white"/>
</svg>
