<svg width="33" height="24" viewBox="0 0 33 24" fill="none" xmlns="http://www.w3.org/2000/svg">
<path d="M32.0314 2.84684C30.8781 3.32792 29.6392 3.65297 28.3368 3.79989C29.6807 3.0429 30.6861 1.85148 31.1654 0.447947C29.9028 1.15395 28.521 1.6509 27.0799 1.91719C26.1109 0.943152 24.8273 0.297546 23.4286 0.0806033C22.0298 -0.13634 20.5941 0.0875171 19.3443 0.71742C18.0945 1.34732 17.1006 2.34803 16.5169 3.56417C15.9332 4.78031 15.7923 6.14385 16.1162 7.44309C13.5578 7.32216 11.055 6.69618 8.77031 5.60576C6.48557 4.51535 4.46992 2.98487 2.85416 1.11366C2.3017 2.0108 1.98403 3.05097 1.98403 4.15875C1.98341 5.15601 2.24428 6.13799 2.7435 7.01757C3.24272 7.89715 3.96485 8.64713 4.84581 9.20098C3.82413 9.17037 2.82499 8.91049 1.93154 8.44295V8.52096C1.93144 9.91965 2.44538 11.2753 3.38617 12.3579C4.32695 13.4405 5.63663 14.1833 7.09298 14.4603C6.1452 14.7018 5.15152 14.7374 4.187 14.5644C4.59789 15.7678 5.39828 16.8203 6.4761 17.5742C7.55393 18.3282 8.85524 18.7461 10.1979 18.7692C7.91869 20.4535 5.10394 21.3672 2.2064 21.3632C1.69313 21.3633 1.18029 21.3351 0.670532 21.2786C3.6117 23.0589 7.03544 24.0037 10.5321 24C22.3687 24 28.8395 14.7711 28.8395 6.76698C28.8395 6.50694 28.8326 6.24429 28.8202 5.98425C30.0788 5.12738 31.1653 4.0663 32.0287 2.85074L32.0314 2.84684Z" fill="white"/>
</svg>
