<svg width="36" height="24" viewBox="0 0 36 24" fill="none" xmlns="http://www.w3.org/2000/svg">
<path d="M34.6192 3.7656C34.424 3.0389 34.0437 2.38098 33.5188 1.86178C32.979 1.32662 32.3175 0.943806 31.5966 0.749473C28.8987 0.00743355 18.0899 0.00743372 18.0899 0.00743372C13.5839 -0.0460641 9.07892 0.189233 4.60049 0.711996C3.87961 0.920686 3.21932 1.31205 2.67836 1.85129C2.14682 2.38496 1.76182 3.04305 1.5607 3.7641C1.07757 6.48003 0.842832 9.23772 0.859651 12C0.842412 14.7598 1.07657 17.5166 1.5607 20.2359C1.75751 20.9539 2.14108 21.609 2.67405 22.1382C3.20702 22.6674 3.87071 23.0496 4.60049 23.252C7.3343 23.9925 18.0899 23.9925 18.0899 23.9925C22.6017 24.0461 27.1124 23.8108 31.5966 23.288C32.3175 23.0937 32.979 22.7108 33.5188 22.1757C34.0503 21.6465 34.4281 20.9884 34.6177 20.2719C35.1135 17.557 35.3545 14.7981 35.3375 12.0345C35.3748 9.2591 35.134 6.48726 34.6192 3.7641V3.7656ZM14.6536 17.1328V6.86868L23.6466 12.0015L14.6536 17.1328Z" fill="white"/>
</svg>
